<svg width="431" height="404" viewBox="0 0 431 404" fill="none" xmlns="http://www.w3.org/2000/svg">
<path d="M76.5234 211H34.4824V0.941406H76.5234V105.971L154.746 0.941406H202.5L136.143 89.5645L202.5 211H154.746L108.604 126.039L76.5234 168.959V211Z" fill="#FFF6E5"/>
<path d="M262.785 377.467C253.02 385.865 242.082 392.311 229.973 396.803C217.864 401.295 205.315 403.541 192.326 403.541C182.365 403.541 172.746 402.223 163.469 399.586C154.289 397.047 145.647 393.434 137.541 388.746C129.533 383.961 122.209 378.248 115.569 371.607C108.928 364.967 103.215 357.643 98.4299 349.635C93.7424 341.529 90.0803 332.887 87.4436 323.707C84.9045 314.43 83.635 304.811 83.635 294.85C83.635 284.889 84.9045 275.27 87.4436 265.992C90.0803 256.715 93.7424 248.072 98.4299 240.064C103.215 231.959 108.928 224.586 115.569 217.945C122.209 211.305 129.533 205.641 137.541 200.953C145.647 196.168 154.289 192.506 163.469 189.967C172.746 187.33 182.365 186.012 192.326 186.012C205.315 186.012 217.864 188.258 229.973 192.75C242.082 197.145 253.02 203.59 262.785 212.086L240.52 248.707C234.367 242.066 227.092 236.988 218.694 233.473C210.295 229.859 201.506 228.053 192.326 228.053C183.049 228.053 174.358 229.811 166.252 233.326C158.147 236.842 151.067 241.627 145.012 247.682C138.957 253.639 134.172 260.719 130.656 268.922C127.141 277.027 125.383 285.67 125.383 294.85C125.383 304.029 127.141 312.672 130.656 320.777C134.172 328.785 138.957 335.816 145.012 341.871C151.067 347.926 158.147 352.711 166.252 356.227C174.358 359.742 183.049 361.5 192.326 361.5C201.506 361.5 210.295 359.742 218.694 356.227C227.092 352.613 234.367 347.486 240.52 340.846L262.785 377.467ZM316.99 399H277V179.713H316.99V249C321.776 245.387 326.707 242.848 331.785 241.383C336.864 239.82 342.039 239.039 347.313 239.039C356.981 239.039 366.063 240.895 374.559 244.605C383.055 248.219 390.428 253.248 396.678 259.693C403.026 266.041 408.006 273.512 411.619 282.105C415.33 290.602 417.186 299.684 417.186 309.352V399H376.903V309.352H377.196C377.196 305.25 376.414 301.393 374.852 297.779C373.289 294.068 371.141 290.846 368.406 288.111C365.672 285.377 362.498 283.229 358.885 281.666C355.272 280.104 351.414 279.322 347.313 279.322C343.114 279.322 339.158 280.104 335.448 281.666C331.737 283.229 328.514 285.377 325.78 288.111C323.045 290.846 320.897 294.068 319.334 297.779C317.772 301.393 316.99 305.25 316.99 309.352V399Z" fill="#FFF6E5"/>
</svg>
